<svg width="20" height="20" viewBox="0 0 20 20" fill="none" xmlns="http://www.w3.org/2000/svg">
<circle cx="10" cy="10" r="9" stroke="#6B6B6B" stroke-width="2" stroke-miterlimit="10" stroke-linejoin="round"/>
<path d="M9.00195 11.9648C9.01562 10.2285 9.50781 9.69531 10.3691 9.16211C10.957 8.79297 11.3945 8.32812 11.3945 7.64453C11.3945 6.87891 10.8066 6.38672 10.0547 6.38672C9.37109 6.38672 8.71484 6.82422 8.67383 7.74023H6.96484C7.00586 5.9082 8.38672 4.96484 10.0684 4.96484C11.9141 4.96484 13.1855 5.99023 13.1855 7.61719C13.1855 8.72461 12.625 9.44922 11.7363 9.98242C10.9434 10.4609 10.6152 10.9395 10.6016 11.9648V12.0879H9.00195V11.9648ZM9.84961 15.1094C9.26172 15.1094 8.7832 14.6309 8.7832 14.043C8.7832 13.4688 9.26172 12.9902 9.84961 12.9902C10.4102 12.9902 10.9023 13.4688 10.9023 14.043C10.9023 14.6309 10.4102 15.1094 9.84961 15.1094Z" fill="#6B6B6B"/>
</svg>
